Coordinates
version=1
nRows=8
nColumns=40
inDegrees=yes

Units are S.I. units (second, meters, Newtons, ...)
If the header above contains a line with 'inDegrees', this indicates whether rotational values are in degrees (yes) or radians (no).

endheader
time	pelvis_tilt	pelvis_list	pelvis_rotation	pelvis_tx	pelvis_ty	pelvis_tz	hip_flexion_r	hip_adduction_r	hip_rotation_r	knee_angle_r	knee_angle_r_beta	ankle_angle_r	subtalar_angle_r	mtp_angle_r	hip_flexion_l	hip_adduction_l	hip_rotation_l	knee_angle_l	knee_angle_l_beta	ankle_angle_l	subtalar_angle_l	mtp_angle_l	lumbar_extension	lumbar_bending	lumbar_rotation	arm_flex_r	arm_add_r	arm_rot_r	elbow_flex_r	pro_sup_r	wrist_flex_r	wrist_dev_r	arm_flex_l	arm_add_l	arm_rot_l	elbow_flex_l	pro_sup_l	wrist_flex_l	wrist_dev_l
      4.92500000	    -22.84961655	     15.09600565	     -7.28681760	     -2.91512875	      0.91293624	      0.29630259	     -3.58063233	    -20.22067810	     -3.04158002	     23.59455173	      0.41180261	    -14.36120934	      2.36644192	      0.00000000	     81.12184705	     -2.69122397	     -9.69667047	     91.16750414	      1.59117312	      8.58444396	     -5.30602894	      0.00000000	    -18.81931297	    -20.67470629	     -5.08570936	     76.72146128	    -15.07137585	      4.22847679	    130.55446074	     45.68198360	      0.00000000	      0.00000000	    -77.57976386	    -11.26647930	    -38.26670789	     80.49100305	     43.55926345	      0.00000000	      0.00000000
      4.93000000	    -22.60117799	     15.26945899	     -6.27460842	     -2.88315891	      0.91706217	      0.29665128	     -4.86146185	    -20.13078490	     -2.96548751	     24.52932604	      0.42811750	    -17.76877972	      0.21128771	      0.00000000	     80.34321546	     -2.14002869	    -10.52057476	     86.84304516	      1.51569707	      8.35826275	     -4.82758643	      0.00000000	    -19.33979985	    -21.10937639	     -6.34070723	     73.52541479	    -15.56306493	      4.43959282	    131.61908085	     45.60037787	      0.00000000	      0.00000000	    -76.78323828	    -11.14146485	    -38.57694887	     81.14607158	     43.76492891	      0.00000000	      0.00000000
      4.93500000	    -22.23410014	     15.36158520	     -5.43585058	     -2.85128292	      0.92159693	      0.29706564	     -5.83055698	    -19.93852897	     -2.76417743	     26.10990822	      0.45570387	    -20.39357246	     -1.59305469	      0.00000000	     79.16501787	     -1.66346563	    -11.39421584	     82.40406208	      1.43822220	      8.05739977	     -4.35710308	      0.00000000	    -20.03780056	    -21.43929132	     -7.40153747	     69.98263365	    -16.02807796	      4.65213684	    132.17761134	     45.53654749	      0.00000000	      0.00000000	    -75.55999598	    -11.27394765	    -38.63536602	     81.81913651	     43.94247733	      0.00000000	      0.00000000
      4.94000000	    -21.76115923	     15.37792939	     -4.77622469	     -2.81954221	      0.92641950	      0.29756764	     -6.47596238	    -19.66312723	     -2.45031012	     28.33382096	      0.49451847	    -22.19520064	     -2.96633007	      0.00000000	     77.63699430	     -1.26907108	    -12.29834927	     77.90248417	      1.35965484	      7.67422867	     -3.90483980	      0.00000000	    -20.87661411	    -21.64644938	     -8.25765248	     66.19502415	    -16.35284740	      4.82135083	    132.20345955	     45.51011480	      0.00000000	      0.00000000	    -73.93847457	    -11.66808071	    -38.40073604	     82.46583728	     44.05419113	      0.00000000	      0.00000000
      4.94500000	    -21.21796913	     15.32545135	     -4.26381782	     -2.78795973	      0.93137591	      0.29812467	     -6.79541218	    -19.32047823	     -2.07760164	     31.15622412	      0.54377869	    -23.20436907	     -3.81898742	      0.00000000	     75.83791848	     -0.93372898	    -13.20373187	     73.39879861	      1.28105070	      7.20871167	     -3.43837091	      0.00000000	    -21.84410013	    -21.80484449	     -8.82877862	     62.12854471	    -16.82993763	      4.64990106	    131.77136656	     45.42800367	      0.00000000	      0.00000000	    -71.95448403	    -12.28240887	    -38.07065657	     83.29532786	     44.18800804	      0.00000000	      0.00000000
      4.95000000	    -20.63838505	     15.20314119	     -3.86993265	     -2.75655376	      0.93632124	      0.29873014	     -6.79764913	    -18.90956868	     -1.67405028	     34.50222526	      0.60217743	    -23.51331187	     -4.20203747	      0.00000000	     73.84207370	     -0.65134466	    -14.09062992	     68.95213267	      1.20344174	      6.65327712	     -2.95713299	      0.00000000	    -22.86183311	    -21.86203144	     -9.20214831	     57.92563022	    -17.13962351	      4.24079191	    130.78773526	     45.31304618	      0.00000000	      0.00000000	    -69.63260088	    -13.10029921	    -37.51437523	     84.13023013	     44.30401416	      0.00000000	      0.00000000
      4.95500000	    -20.05353449	     15.02089808	     -3.55127510	     -2.72532924	      0.94112396	      0.29932957	     -6.50121761	    -18.44678529	     -1.30910710	     38.28603940	      0.66821745	    -23.30869065	     -4.19655806	      0.00000000	     71.72274300	     -0.39699890	    -14.95723156	     64.63024430	      1.12801056	      5.96666239	     -2.55851048	      0.00000000	    -23.86688823	    -21.79588716	     -9.63698624	     53.92229794	    -17.19652706	      4.28685241	    128.91542407	     45.18727817	      0.00000000	      0.00000000	    -67.12758143	    -13.73676657	    -36.92519106	     85.11127693	     44.39329728	      0.00000000	      0.00000000
      4.96000000	    -19.51160979	     14.76574296	     -3.25457395	     -2.69427925	      0.94564723	      0.29988402	     -5.91697108	    -17.91067168	     -1.00759208	     42.39979260	      0.74001598	    -22.73179695	     -3.81903166	      0.00000000	     69.56330179	     -0.15427198	    -15.75231636	     60.49563130	      1.05584795	      5.25627606	     -2.01838029	      0.00000000	    -24.87622786	    -21.70757034	     -9.13950578	     49.26275452	    -17.80073865	      2.43400513	    127.40806226	     44.89702401	      0.00000000	      0.00000000	    -64.24662478	    -15.70911787	    -35.44144838	     86.16103815	     44.59414166	      0.00000000	      0.00000000
